<svg xmlns="http://www.w3.org/2000/svg" width="50" height="30" fill="none" viewBox="0 0 50 30">
  <path fill="#fff" d="M9.997 30c-1.896 0-3.586-.323-5.07-.97-1.475-.646-2.648-1.544-3.52-2.695C.547 25.175.078 23.831 0 22.3h3.62c.076.941.402 1.754.976 2.439.575.674 1.327 1.197 2.255 1.568.93.37 1.959.556 3.089.556 1.264 0 2.384-.218 3.36-.656.977-.437 1.744-1.045 2.299-1.825.555-.78.833-1.682.833-2.709 0-1.074-.268-2.02-.804-2.837-.537-.827-1.322-1.474-2.356-1.94-1.034-.465-2.298-.698-3.792-.698H7.124V13.06H9.48c1.168 0 2.193-.21 3.074-.627.89-.419 1.585-1.008 2.083-1.769.507-.76.76-1.654.76-2.68 0-.989-.22-1.85-.66-2.581-.44-.732-1.063-1.302-1.867-1.711-.795-.409-1.733-.613-2.815-.613a7.469 7.469 0 0 0-2.873.556c-.89.361-1.618.889-2.183 1.583-.565.684-.872 1.511-.92 2.48H.632c.057-1.53.522-2.87 1.393-4.02.872-1.16 2.011-2.063 3.419-2.71C6.86.324 8.417 0 10.112 0c1.82 0 3.38.366 4.683 1.098 1.302.722 2.303 1.678 3.002 2.866a7.462 7.462 0 0 1 1.048 3.85c0 1.644-.435 3.046-1.307 4.206-.862 1.16-2.035 1.963-3.519 2.41v.228c1.858.304 3.308 1.088 4.352 2.353 1.044 1.254 1.566 2.808 1.566 4.662 0 1.588-.436 3.013-1.307 4.278-.862 1.254-2.04 2.243-3.534 2.965C13.602 29.64 11.903 30 9.997 30ZM50 9.525h-3.562c-.21-1.017-.58-1.91-1.106-2.68a7.336 7.336 0 0 0-1.896-1.94 8.072 8.072 0 0 0-2.456-1.198 9.885 9.885 0 0 0-2.816-.399c-1.78 0-3.394.447-4.84 1.34-1.437.894-2.58 2.21-3.433 3.95-.843 1.74-1.264 3.873-1.264 6.402s.421 4.663 1.264 6.402c.852 1.74 1.996 3.056 3.433 3.95 1.446.893 3.06 1.34 4.84 1.34a9.85 9.85 0 0 0 2.816-.4c.9-.265 1.719-.66 2.456-1.183a7.537 7.537 0 0 0 1.896-1.953c.526-.78.895-1.673 1.106-2.68H50c-.268 1.492-.757 2.827-1.465 4.006a10.977 10.977 0 0 1-2.643 3.009 11.605 11.605 0 0 1-3.548 1.867c-1.302.428-2.695.642-4.18.642-2.508 0-4.74-.608-6.693-1.825-1.954-1.217-3.49-2.947-4.61-5.19C25.74 20.74 25.18 18.08 25.18 15s.56-5.741 1.68-7.985c1.12-2.243 2.657-3.973 4.61-5.19C33.425.608 35.657 0 38.165 0c1.485 0 2.878.214 4.18.642a11.436 11.436 0 0 1 3.548 1.882 10.78 10.78 0 0 1 2.643 2.994c.709 1.17 1.197 2.505 1.465 4.007Z"/>
</svg>
